<svg id="레이어_1" data-name="레이어 1" xmlns="http://www.w3.org/2000/svg" viewBox="0 0 350 72.92"><defs><style>.cls-1{fill:#ff7d7d;stroke:#7d7d7d;stroke-linejoin:round;stroke-width:4.43px;}</style></defs><path class="cls-1" d="M34.74,65.55C13.08,45.56,4.4,34.37,4,25.1,3.56,15,8.61,7.4,19.57,7.4c15.17,0,15.17,17.7,15.17,17.7s0-17.7,15.16-17.7c11,0,16,7.59,15.54,17.7C65.07,34.37,56.39,45.56,34.74,65.55Z"/><path class="cls-1" d="M104.87,65.55c-21.66-20-30.34-31.18-30.71-40.45C73.69,15,78.74,7.4,89.7,7.4c15.17,0,15.17,17.7,15.17,17.7s0-17.7,15.17-17.7c11,0,16,7.59,15.53,17.7C135.21,34.37,126.52,45.56,104.87,65.55Z"/><path class="cls-1" d="M315.26,65.55c-21.65-20-30.33-31.18-30.7-40.45C284.08,15,289.14,7.4,300.1,7.4c15.16,0,15.16,17.7,15.16,17.7s0-17.7,15.17-17.7c11,0,16,7.59,15.54,17.7C345.6,34.37,336.92,45.56,315.26,65.55Z"/><path class="cls-1" d="M175,65.55c-21.65-20-30.34-31.18-30.71-40.45C143.82,15,148.88,7.4,159.83,7.4,175,7.4,175,25.1,175,25.1s0-17.7,15.17-17.7c11,0,16,7.59,15.54,17.7C205.34,34.37,196.65,45.56,175,65.55Z"/><path class="cls-1" d="M245.13,65.55c-21.65-20-30.34-31.18-30.7-40.45C214,15,219,7.4,230,7.4c15.17,0,15.17,17.7,15.17,17.7s0-17.7,15.17-17.7c11,0,16,7.59,15.54,17.7C275.47,34.37,266.79,45.56,245.13,65.55Z"/></svg>