<svg id="레이어_1" data-name="레이어 1" xmlns="http://www.w3.org/2000/svg" viewBox="0 0 125 125"><defs><style>.cls-1{fill:#f2f2f2;}.cls-2{fill:#7d7d7d;}.cls-3{fill:none;stroke:#a09c12;stroke-miterlimit:10;stroke-width:9px;}</style></defs><circle class="cls-1" cx="62.5" cy="62.5" r="58.59"/><path class="cls-2" d="M62.5,7.81A54.69,54.69,0,1,1,7.81,62.5,54.76,54.76,0,0,1,62.5,7.81M62.5,0A62.5,62.5,0,1,0,125,62.5,62.5,62.5,0,0,0,62.5,0Z"/><line class="cls-3" x1="62.5" y1="18.21" x2="62.5" y2="106.79"/><line class="cls-3" x1="24.14" y1="40.35" x2="100.86" y2="84.65"/><line class="cls-3" x1="24.14" y1="84.65" x2="100.86" y2="40.35"/><line class="cls-3" x1="56.77" y1="41.11" x2="68.23" y2="83.89"/><line class="cls-3" x1="41.11" y1="56.77" x2="83.89" y2="68.23"/><line class="cls-3" x1="46.84" y1="78.16" x2="78.16" y2="46.84"/><line class="cls-3" x1="46.84" y1="46.84" x2="78.16" y2="78.16"/><line class="cls-3" x1="41.11" y1="68.23" x2="83.89" y2="56.77"/><line class="cls-3" x1="56.77" y1="83.89" x2="68.23" y2="41.11"/><line class="cls-3" x1="45.89" y1="33.73" x2="79.11" y2="91.27"/><line class="cls-3" x1="29.28" y1="62.5" x2="95.72" y2="62.5"/><line class="cls-3" x1="45.89" y1="91.27" x2="79.11" y2="33.73"/></svg>