<svg id="레이어_1" data-name="레이어 1" xmlns="http://www.w3.org/2000/svg" viewBox="0 0 256 256"><defs><style>.cls-1,.cls-2{fill:none;}.cls-1{stroke:#fff;stroke-linecap:square;stroke-miterlimit:1;stroke-width:33px;}.cls-2{stroke:#ffde52;stroke-miterlimit:10;stroke-width:9px;}</style></defs><line class="cls-1" x1="128" y1="25" x2="128" y2="231"/><line class="cls-1" x1="38.8" y1="76.5" x2="217.2" y2="179.5"/><line class="cls-1" x1="38.8" y1="179.5" x2="217.2" y2="76.5"/><line class="cls-1" x1="114.67" y1="78.25" x2="141.33" y2="177.75"/><line class="cls-1" x1="78.25" y1="114.67" x2="177.75" y2="141.33"/><line class="cls-1" x1="91.58" y1="164.42" x2="164.42" y2="91.58"/><line class="cls-1" x1="91.58" y1="91.58" x2="164.42" y2="164.42"/><line class="cls-1" x1="78.25" y1="141.33" x2="177.75" y2="114.67"/><line class="cls-1" x1="114.67" y1="177.75" x2="141.33" y2="78.25"/><line class="cls-1" x1="89.38" y1="61.1" x2="166.62" y2="194.9"/><line class="cls-1" x1="50.75" y1="128" x2="205.25" y2="128"/><line class="cls-1" x1="89.37" y1="194.9" x2="166.63" y2="61.1"/><line class="cls-2" x1="128" y1="20" x2="128" y2="236"/><line class="cls-2" x1="34.47" y1="74" x2="221.53" y2="182"/><line class="cls-2" x1="34.47" y1="182" x2="221.53" y2="74"/><line class="cls-2" x1="114.02" y1="75.84" x2="141.98" y2="180.16"/><line class="cls-2" x1="75.84" y1="114.02" x2="180.16" y2="141.98"/><line class="cls-2" x1="89.82" y1="166.18" x2="166.18" y2="89.82"/><line class="cls-2" x1="89.82" y1="89.82" x2="166.18" y2="166.18"/><line class="cls-2" x1="75.84" y1="141.98" x2="180.16" y2="114.02"/><line class="cls-2" x1="114.02" y1="180.16" x2="141.98" y2="75.84"/><line class="cls-2" x1="87.5" y1="57.85" x2="168.5" y2="198.15"/><line class="cls-2" x1="47" y1="128" x2="209" y2="128"/><line class="cls-2" x1="87.5" y1="198.15" x2="168.5" y2="57.85"/></svg>