<svg id="레이어_1" data-name="레이어 1" xmlns="http://www.w3.org/2000/svg" viewBox="0 0 256 256"><defs><style>.cls-1{fill:#f2f2f2;}.cls-2{fill:#7d7d7d;}.cls-3{fill:none;stroke:#ffde52;stroke-miterlimit:10;stroke-width:18px;}</style></defs><circle class="cls-1" cx="128" cy="128" r="120"/><path class="cls-2" d="M128,16a112,112,0,0,1,79.2,191.2A112,112,0,0,1,48.8,48.8,111.29,111.29,0,0,1,128,16m0-16A128,128,0,1,0,256,128,128,128,0,0,0,128,0Z"/><line class="cls-3" x1="125" y1="36.41" x2="125" y2="213.59"/><line class="cls-3" x1="48.28" y1="80.71" x2="201.72" y2="169.29"/><line class="cls-3" x1="48.28" y1="169.29" x2="201.72" y2="80.71"/><line class="cls-3" x1="113.54" y1="82.22" x2="136.46" y2="167.78"/><line class="cls-3" x1="82.22" y1="113.54" x2="167.78" y2="136.46"/><line class="cls-3" x1="93.68" y1="156.32" x2="156.32" y2="93.68"/><line class="cls-3" x1="93.68" y1="93.68" x2="156.32" y2="156.32"/><line class="cls-3" x1="82.22" y1="136.46" x2="167.78" y2="113.54"/><line class="cls-3" x1="113.54" y1="167.78" x2="136.46" y2="82.22"/><line class="cls-3" x1="91.78" y1="67.46" x2="158.22" y2="182.54"/><line class="cls-3" x1="58.56" y1="125" x2="191.44" y2="125"/><line class="cls-3" x1="91.78" y1="182.54" x2="158.22" y2="67.46"/></svg>