<svg id="레이어_1" data-name="레이어 1" xmlns="http://www.w3.org/2000/svg" viewBox="0 0 125 125"><defs><style>.cls-1{fill:#ff0;}</style></defs><circle cx="62.5" cy="62.5" r="59.5"/><path class="cls-1" d="M62.63,6.13a56.5,56.5,0,1,1-56.5,56.5,56.56,56.56,0,0,1,56.5-56.5m0-6a62.5,62.5,0,1,0,62.5,62.5A62.51,62.51,0,0,0,62.63.13Z" transform="translate(-0.13 -0.13)"/><circle cx="62" cy="62" r="45.5"/><path class="cls-1" d="M62.13,19.63a42.5,42.5,0,1,1-42.5,42.5,42.55,42.55,0,0,1,42.5-42.5m0-6a48.5,48.5,0,1,0,48.5,48.5,48.51,48.51,0,0,0-48.5-48.5Z" transform="translate(-0.13 -0.13)"/></svg>