<svg id="레이어_1" data-name="레이어 1" xmlns="http://www.w3.org/2000/svg" xmlns:xlink="http://www.w3.org/1999/xlink" viewBox="0 0 256 256"><defs><style>.cls-1,.cls-5{fill:none;}.cls-2{fill:#f2f2f2;}.cls-3{fill:#7d7d7d;}.cls-4{clip-path:url(#clip-path);}.cls-5{stroke:#7676ff;stroke-linecap:square;stroke-miterlimit:10;stroke-width:30px;}</style><clipPath id="clip-path"><circle class="cls-1" cx="128" cy="128" r="125"/></clipPath></defs><circle class="cls-2" cx="128" cy="128" r="125"/><path class="cls-3" d="M128,6a122,122,0,0,1,86.27,208.27A122,122,0,0,1,41.73,41.73,121.22,121.22,0,0,1,128,6m0-6A128,128,0,1,0,256,128,128,128,0,0,0,128,0Z"/><g class="cls-4"><polyline class="cls-5" points="10.3 106.19 96.61 87.82 67.43 140.65 183.93 112.03 157.19 169.03 245.63 146.51"/></g><path class="cls-3" d="M128,6a122,122,0,0,1,86.27,208.27A122,122,0,0,1,41.73,41.73,121.22,121.22,0,0,1,128,6m0-6A128,128,0,1,0,256,128,128,128,0,0,0,128,0Z"/></svg>