<svg id="one" xmlns="http://www.w3.org/2000/svg" viewBox="0 0 256 256"><defs><style>.cls-1{fill:#2c46ff;}.cls-2{fill:none;stroke:#000;stroke-linecap:round;stroke-linejoin:bevel;stroke-width:22.37px;}</style></defs><g id="fg"><path class="cls-1" d="M82.57,235.58a29,29,0,0,1-25-14.44L12.11,142.45a29,29,0,0,1,0-28.89l45.44-78.7a29,29,0,0,1,25-14.44h90.86a29,29,0,0,1,25,14.44l45.44,78.69a29,29,0,0,1,0,28.89l-45.44,78.7a29,29,0,0,1-25,14.44Z"/><path d="M173.43,28.34a21,21,0,0,1,18.16,10.48L237,117.51a21.07,21.07,0,0,1,0,21l-45.44,78.69a21,21,0,0,1-18.16,10.48H82.57a21,21,0,0,1-18.16-10.48L19,138.49a21.07,21.07,0,0,1,0-21L64.41,38.82A21,21,0,0,1,82.57,28.34h90.86m0-15.84H82.57A36.79,36.79,0,0,0,50.69,30.9L5.25,109.59a36.86,36.86,0,0,0,0,36.82L50.69,225.1a36.79,36.79,0,0,0,31.88,18.4h90.86a36.79,36.79,0,0,0,31.88-18.4l45.44-78.69a36.86,36.86,0,0,0,0-36.82L205.31,30.9a36.79,36.79,0,0,0-31.88-18.4Z"/></g><g id="z"><line id="cvbc" class="cls-2" x1="62" y1="128" x2="194" y2="128"/><line id="xcv" class="cls-2" x1="95" y1="185.16" x2="161" y2="70.84"/><line id="zxc" class="cls-2" x1="161" y1="185.16" x2="95" y2="70.84"/></g></svg>