<svg id="one" xmlns="http://www.w3.org/2000/svg" viewBox="0 0 256 256"><defs><style>.cls-1{fill:#ffff43;}.cls-2{fill:none;stroke:#000;stroke-linecap:square;stroke-miterlimit:10;stroke-width:20px;}</style></defs><g id="ty"><polygon class="cls-1" points="68.57 230.93 9.15 128 68.57 25.07 187.43 25.07 246.85 128 187.43 230.93 68.57 230.93"/><path d="M182.85,33l54.86,95-54.86,95H73.15L18.29,128,73.15,33h109.7M192,17.15H64L0,128,64,238.85H192L256,128,192,17.15Z"/></g><polygon id="p" class="cls-2" points="101.95 83.15 127.93 98.15 153.91 83.15 153.91 113.15 179.89 128.15 153.91 143.15 153.91 173.15 127.93 158.15 101.95 173.15 101.95 143.15 75.97 128.15 101.95 113.15 101.95 83.15"/><circle id="o" cx="127.43" cy="127.65" r="32.5"/></svg>