<svg id="one" xmlns="http://www.w3.org/2000/svg" viewBox="0 0 256 256"><defs><style>.cls-1{fill:#ffff43;}.cls-2{fill:none;stroke:#000;stroke-linecap:square;stroke-linejoin:bevel;stroke-width:22.37px;}</style></defs><g id="qw"><path class="cls-1" d="M100,238.59a62.33,62.33,0,0,1-53.83-31.08l-28-48.43a62.32,62.32,0,0,1,0-62.16l28-48.43A62.33,62.33,0,0,1,100,17.41H156a62.33,62.33,0,0,1,53.83,31.08l28,48.43a62.32,62.32,0,0,1,0,62.16l-28,48.43A62.33,62.33,0,0,1,156,238.59Z"/><path d="M156,25.33a54.37,54.37,0,0,1,47,27.12l28,48.43a54.43,54.43,0,0,1,0,54.24l-28,48.43a54.37,54.37,0,0,1-47,27.12H100a54.37,54.37,0,0,1-47-27.12l-28-48.43a54.43,54.43,0,0,1,0-54.24l28-48.43a54.37,54.37,0,0,1,47-27.12H156m0-15.84H100a70.08,70.08,0,0,0-60.69,35L11.39,93a70.07,70.07,0,0,0,0,70.08l28,48.43a70.08,70.08,0,0,0,60.69,35H156a70.08,70.08,0,0,0,60.69-35l28-48.43a70.07,70.07,0,0,0,0-70.08l-28-48.43A70.08,70.08,0,0,0,156,9.49Z"/></g><circle id="a" class="cls-2" cx="127.93" cy="128.15" r="52"/></svg>