<svg xmlns="http://www.w3.org/2000/svg" xmlns:xlink="http://www.w3.org/1999/xlink" width="220" height="220" viewBox="0 0 220 220">
  <defs>
    <clipPath id="clip-Enemy_3_1">
      <rect width="220" height="220"/>
    </clipPath>
  </defs>
  <g id="Enemy_3_1" clip-path="url(#clip-Enemy_3_1)">
    <g id="Ellipse_12" data-name="Ellipse 12" transform="translate(0.5 0.34)" fill="#5aed4d" stroke="#000" stroke-width="5">
      <circle cx="110" cy="110" r="110" stroke="none"/>
      <circle cx="110" cy="110" r="107.5" fill="none"/>
    </g>
    <g id="enemy_test" transform="translate(17.866 -18.17)">
      <rect id="Rectangle_20" data-name="Rectangle 20" width="126.269" height="7" transform="translate(29 98.17)"/>
      <path id="Path_11" data-name="Path 11" d="M170.6,101v1H47.668v-1H170.6m4.668-6H43v13H175.269Z" transform="translate(-17 0.17)"/>
      <rect id="Rectangle_21" data-name="Rectangle 21" width="126.269" height="24" transform="translate(29 116.17)"/>
      <path id="Path_12" data-name="Path 12" d="M170.6,119v18H47.668V119H170.6m4.668-6H43v30H175.269Z" transform="translate(-17 0.17)"/>
      <rect id="Rectangle_22" data-name="Rectangle 22" width="126.269" height="7" transform="translate(29 151.17)"/>
      <path id="Path_13" data-name="Path 13" d="M170.6,154v1H47.668v-1H170.6m4.668-6H43v13H175.269Z" transform="translate(-17 0.17)"/>
    </g>
  </g>
</svg>
