<svg id="one" xmlns="http://www.w3.org/2000/svg" viewBox="0 0 256 256"><defs><style>.cls-1{fill:#fff;stroke:#fff;stroke-linecap:square;stroke-linejoin:bevel;stroke-width:22.37px;}</style></defs><g id="x"><path d="M100,238.38a62.13,62.13,0,0,1-53.65-31L18.42,159a62.15,62.15,0,0,1,0-62l28-48.43a62.13,62.13,0,0,1,53.65-31H156a62.13,62.13,0,0,1,53.65,31l28,48.43a62.15,62.15,0,0,1,0,62l-28,48.43a62.13,62.13,0,0,1-53.65,31Z"/><path d="M156,25.74a54,54,0,0,1,46.62,26.92l28,48.43a54,54,0,0,1,0,53.82l-28,48.43A54,54,0,0,1,156,230.26H100a54,54,0,0,1-46.62-26.92l-28-48.43a54,54,0,0,1,0-53.82l28-48.43A54,54,0,0,1,100,25.74H156m0-16.25H100a70.08,70.08,0,0,0-60.69,35L11.39,93a70.07,70.07,0,0,0,0,70.08l28,48.43a70.08,70.08,0,0,0,60.69,35H156a70.08,70.08,0,0,0,60.69-35l28-48.43a70.07,70.07,0,0,0,0-70.08l-28-48.43A70.08,70.08,0,0,0,156,9.49Z"/></g><circle id="e" class="cls-1" cx="127.62" cy="127.53" r="52"/></svg>