<svg id="레이어_1" data-name="레이어 1" xmlns="http://www.w3.org/2000/svg" viewBox="0 0 222 256.34"><defs><style>.cls-1{fill:#f15a24;}</style></defs><polygon class="cls-1" points="3 190.53 3 65.82 111 3.46 219 65.82 219 190.53 111 252.88 3 190.53"/><path d="M128,6.76,233,67.38V188.62L128,249.24,23,188.62V67.38L128,6.76m0-6.93L17,63.91V192.09l111,64.08,111-64.08V63.91L128-.17Z" transform="translate(-17 0.17)"/><rect x="29" y="98.17" width="164" height="7"/><path d="M207,101v1H49v-1H207m6-6H43v13H213V95Z" transform="translate(-17 0.17)"/><rect x="29" y="116.17" width="164" height="24"/><path d="M207,119v18H49V119H207m6-6H43v30H213V113Z" transform="translate(-17 0.17)"/><rect x="29" y="151.17" width="164" height="7"/><path d="M207,154v1H49v-1H207m6-6H43v13H213V148Z" transform="translate(-17 0.17)"/></svg>