<svg id="one" xmlns="http://www.w3.org/2000/svg" viewBox="0 0 256 256"><defs><style>.cls-1,.cls-2{fill:#fff;stroke:#fff;stroke-miterlimit:10;}.cls-1{stroke-linecap:square;stroke-width:20px;}</style></defs><g id="v"><polygon points="68.39 231.25 8.78 128 68.39 24.75 187.61 24.75 247.22 128 187.61 231.25 68.39 231.25"/><path d="M183.22,32.35,238.45,128l-55.23,95.65H72.78L17.55,128,72.78,32.35H183.22M192,17.15H64L0,128,64,238.85H192L256,128,192,17.15Z"/></g><polygon id="w" class="cls-1" points="101.64 82.53 127.62 97.53 153.6 82.53 153.6 112.53 179.59 127.53 153.6 142.53 153.6 172.53 127.62 157.53 101.64 172.53 101.64 142.53 75.66 127.53 101.64 112.53 101.64 82.53"/><circle id="q" class="cls-2" cx="127.12" cy="127.03" r="32.5"/></svg>