<svg id="one" xmlns="http://www.w3.org/2000/svg" viewBox="0 0 256 256"><defs><style>.cls-1{fill:#2c46ff;}.cls-2{fill:none;stroke:#000;stroke-linecap:square;stroke-miterlimit:10;stroke-width:20px;}</style></defs><g id="hj"><polygon class="cls-1" points="68.39 231.25 8.78 128 68.39 24.75 187.61 24.75 247.22 128 187.61 231.25 68.39 231.25"/><path d="M183.22,32.35,238.45,128l-55.23,95.65H72.78L17.55,128,72.78,32.35H183.22M192,17.15H64L0,128,64,238.85H192L256,128,192,17.15Z"/></g><polygon id="k" class="cls-2" points="102.02 83 128 98 153.98 83 153.98 113 179.96 128 153.98 143 153.98 173 128 158 102.02 173 102.02 143 76.04 128 102.02 113 102.02 83"/><circle id="j" cx="127.5" cy="127.5" r="32.5"/></svg>