<svg id="one" xmlns="http://www.w3.org/2000/svg" viewBox="0 0 256 256"><defs><style>.cls-1{fill:#ff7031;}.cls-2{fill:none;stroke:#000;stroke-linecap:square;stroke-miterlimit:10;stroke-width:20px;}</style></defs><g id="m"><polygon class="cls-1" points="68.39 231.25 8.78 128 68.39 24.75 187.61 24.75 247.22 128 187.61 231.25 68.39 231.25"/><path d="M183.22,32.35,238.45,128l-55.23,95.65H72.78L17.55,128,72.78,32.35H183.22M192,17.15H64L0,128,64,238.85H192L256,128,192,17.15Z"/></g><polygon id="y" class="cls-2" points="101.95 83.15 127.93 98.15 153.91 83.15 153.91 113.15 179.89 128.15 153.91 143.15 153.91 173.15 127.93 158.15 101.95 173.15 101.95 143.15 75.97 128.15 101.95 113.15 101.95 83.15"/><circle id="t" cx="127.43" cy="127.65" r="32.5"/></svg>