<svg id="레이어_1" data-name="레이어 1" xmlns="http://www.w3.org/2000/svg" viewBox="0 0 256 256"><defs><style>.cls-1,.cls-2{fill:#924dff;}.cls-1{stroke:#fff;stroke-miterlimit:10;stroke-width:24px;}</style></defs><path class="cls-1" d="M78.76,63a40.65,40.65,0,0,0-5.63,80.31,57.06,57.06,0,1,0,49.75-37.81l-.67.07a39.8,39.8,0,0,0,0-4.88A40.65,40.65,0,0,0,78.76,63Z"/><circle class="cls-1" cx="176.97" cy="61.34" r="27.6"/><path class="cls-2" d="M78.76,63a40.65,40.65,0,0,0-5.63,80.31,57.06,57.06,0,1,0,49.75-37.81l-.67.07a39.8,39.8,0,0,0,0-4.88A40.65,40.65,0,0,0,78.76,63Z"/><circle class="cls-2" cx="176.97" cy="61.34" r="27.6"/></svg>