<svg id="레이어_1" data-name="레이어 1" xmlns="http://www.w3.org/2000/svg" viewBox="0 0 125 125"><defs><style>.cls-1{fill:#f2f2f2;}.cls-2{fill:#7d7d7d;}.cls-3{fill:#492780;}</style></defs><circle class="cls-1" cx="62.5" cy="62.5" r="58.59"/><path class="cls-2" d="M62.5,7.81A54.69,54.69,0,1,1,7.81,62.5,54.76,54.76,0,0,1,62.5,7.81M62.5,0A62.5,62.5,0,1,0,125,62.5,62.5,62.5,0,0,0,62.5,0Z"/><path class="cls-3" d="M42.59,37.11a17.31,17.31,0,0,0-2.4,34.2,24.3,24.3,0,1,0,21.19-16.1l-.28,0a18.07,18.07,0,0,0,0-2.08A17.31,17.31,0,0,0,42.59,37.11Z"/><circle class="cls-3" cx="84.42" cy="36.39" r="11.75"/></svg>