<svg id="레이어_1" data-name="레이어 1" xmlns="http://www.w3.org/2000/svg" viewBox="0 0 256 256"><defs><style>.cls-1{fill:#f2f2f2;}.cls-2{fill:#7d7d7d;}.cls-3{fill:#492780;}</style></defs><circle class="cls-1" cx="128" cy="128" r="120"/><path class="cls-2" d="M128,16a112,112,0,0,1,79.2,191.2A112,112,0,0,1,48.8,48.8,111.29,111.29,0,0,1,128,16m0-16A128,128,0,1,0,256,128,128,128,0,0,0,128,0Z"/><path class="cls-3" d="M87.22,76a35.46,35.46,0,0,0-4.9,70.05,49.77,49.77,0,1,0,43.39-33l-.58.06a37.73,37.73,0,0,0,0-4.25A35.46,35.46,0,0,0,87.22,76Z"/><circle class="cls-3" cx="172.89" cy="74.52" r="24.07"/></svg>