<svg id="레이어_1" data-name="레이어 1" xmlns="http://www.w3.org/2000/svg" viewBox="0 0 256 256"><defs><style>.cls-1{fill:#f2f2f2;}.cls-2{fill:#7d7d7d;}.cls-3{fill:#353535;}</style></defs><circle class="cls-1" cx="128" cy="128" r="120"/><path class="cls-2" d="M128,16a112,112,0,0,1,79.2,191.2A112,112,0,0,1,48.8,48.8,111.29,111.29,0,0,1,128,16m0-16A128,128,0,1,0,256,128,128,128,0,0,0,128,0Z"/><rect class="cls-3" x="123.44" y="41.4" width="9.12" height="173.19"/><rect class="cls-3" x="41.4" y="123.44" width="173.19" height="9.12"/><path class="cls-3" d="M128,161.42A33.42,33.42,0,1,1,161.42,128,33.46,33.46,0,0,1,128,161.42Zm0-57.73A24.31,24.31,0,1,0,152.31,128,24.34,24.34,0,0,0,128,103.69Z"/><path class="cls-3" d="M128,190.29A62.29,62.29,0,1,1,190.29,128,62.36,62.36,0,0,1,128,190.29Zm0-115.46A53.17,53.17,0,1,0,181.17,128,53.23,53.23,0,0,0,128,74.83Z"/><rect class="cls-3" x="36.85" y="99.13" width="9.12" height="57.73"/><rect class="cls-3" x="210.04" y="99.13" width="9.12" height="57.73"/><rect class="cls-3" x="99.13" y="36.85" width="57.73" height="9.12"/><rect class="cls-3" x="99.13" y="210.04" width="57.73" height="9.12"/></svg>