<svg id="레이어_1" data-name="레이어 1" xmlns="http://www.w3.org/2000/svg" viewBox="0 0 256 256"><defs><style>.cls-1,.cls-2{fill:#353535;}.cls-1{stroke:#fff;stroke-miterlimit:10;stroke-width:14px;}</style></defs><rect class="cls-1" x="123" y="33" width="10" height="190"/><rect class="cls-1" x="33" y="123" width="190" height="10"/><path class="cls-1" d="M128,164.67A36.67,36.67,0,1,1,164.67,128,36.71,36.71,0,0,1,128,164.67Zm0-63.34A26.67,26.67,0,1,0,154.67,128,26.71,26.71,0,0,0,128,101.33Z"/><path class="cls-1" d="M128,196.33A68.33,68.33,0,1,1,196.33,128,68.4,68.4,0,0,1,128,196.33Zm0-126.66A58.33,58.33,0,1,0,186.33,128,58.39,58.39,0,0,0,128,69.67Z"/><rect class="cls-1" x="28" y="96.33" width="10" height="63.33"/><rect class="cls-1" x="218" y="96.33" width="10" height="63.33"/><rect class="cls-1" x="96.33" y="28" width="63.33" height="10"/><rect class="cls-1" x="96.33" y="218" width="63.33" height="10"/><rect class="cls-2" x="123" y="33" width="10" height="190"/><rect class="cls-2" x="33" y="123" width="190" height="10"/><path class="cls-2" d="M128,164.67A36.67,36.67,0,1,1,164.67,128,36.71,36.71,0,0,1,128,164.67Zm0-63.34A26.67,26.67,0,1,0,154.67,128,26.71,26.71,0,0,0,128,101.33Z"/><path class="cls-2" d="M128,196.33A68.33,68.33,0,1,1,196.33,128,68.4,68.4,0,0,1,128,196.33Zm0-126.66A58.33,58.33,0,1,0,186.33,128,58.39,58.39,0,0,0,128,69.67Z"/><rect class="cls-2" x="28" y="96.33" width="10" height="63.33"/><rect class="cls-2" x="218" y="96.33" width="10" height="63.33"/><rect class="cls-2" x="96.33" y="28" width="63.33" height="10"/><rect class="cls-2" x="96.33" y="218" width="63.33" height="10"/></svg>