<svg id="레이어_1" data-name="레이어 1" xmlns="http://www.w3.org/2000/svg" viewBox="0 0 125 125"><defs><style>.cls-1{fill:#f2f2f2;}.cls-2{fill:#7d7d7d;}.cls-3{fill:#939393;}</style></defs><circle class="cls-1" cx="62.5" cy="62.5" r="58.59"/><path class="cls-2" d="M62.5,7.81A54.69,54.69,0,1,1,7.81,62.5,54.76,54.76,0,0,1,62.5,7.81M62.5,0A62.5,62.5,0,1,0,125,62.5,62.5,62.5,0,0,0,62.5,0Z"/><rect class="cls-3" x="60.27" y="20.22" width="4.45" height="84.57"/><rect class="cls-3" x="20.22" y="60.27" width="84.57" height="4.45"/><path class="cls-3" d="M62.5,78.82A16.32,16.32,0,1,1,78.82,62.5,16.34,16.34,0,0,1,62.5,78.82Zm0-28.19A11.87,11.87,0,1,0,74.37,62.5,11.89,11.89,0,0,0,62.5,50.63Z"/><path class="cls-3" d="M62.5,92.91A30.41,30.41,0,1,1,92.91,62.5,30.44,30.44,0,0,1,62.5,92.91Zm0-56.37a26,26,0,1,0,26,26A26,26,0,0,0,62.5,36.54Z"/><rect class="cls-3" x="17.99" y="48.41" width="4.45" height="28.19"/><rect class="cls-3" x="102.56" y="48.41" width="4.45" height="28.19"/><rect class="cls-3" x="48.41" y="17.99" width="28.19" height="4.45"/><rect class="cls-3" x="48.41" y="102.56" width="28.19" height="4.45"/></svg>