<svg id="레이어_1" data-name="레이어 1" xmlns="http://www.w3.org/2000/svg" viewBox="0 0 256 256"><defs><style>.cls-1{fill:#f2f2f2;}.cls-2{fill:#727272;}.cls-3{fill:#ff3f3f;}.cls-4{fill:#fff;}.cls-5{fill:#00b0f0;}</style></defs><circle class="cls-1" cx="128" cy="128" r="125"/><path class="cls-2" d="M128,6a122,122,0,0,1,86.27,208.27A122,122,0,0,1,41.73,41.73,121.22,121.22,0,0,1,128,6m0-6A128,128,0,1,0,256,128,128,128,0,0,0,128,0Z"/><polygon class="cls-3" points="128 7 147.14 56.57 188.5 23.21 180.29 75.71 232.79 67.5 199.43 108.86 249 128 199.43 147.14 232.79 188.5 180.29 180.29 188.5 232.79 147.14 199.43 128 249 108.86 199.43 67.5 232.79 75.71 180.29 23.21 188.5 56.57 147.14 7 128 56.57 108.86 23.21 67.5 75.71 75.71 67.5 23.21 108.86 56.57 128 7"/><circle class="cls-4" cx="128" cy="128" r="69.99"/><circle class="cls-5" cx="128" cy="128" r="43.89"/></svg>