<svg id="레이어_1" data-name="레이어 1" xmlns="http://www.w3.org/2000/svg" viewBox="0 0 256 256"><defs><style>.cls-1{fill:#f2f2f2;}.cls-2{fill:#7d7d7d;}.cls-3{fill:#ff748c;}</style></defs><circle class="cls-1" cx="128" cy="128" r="120"/><path class="cls-2" d="M128,16a112,112,0,0,1,79.2,191.2A112,112,0,0,1,48.8,48.8,111.29,111.29,0,0,1,128,16m0-16A128,128,0,1,0,256,128,128,128,0,0,0,128,0Z"/><path class="cls-3" d="M128,128s-46.74-92,0-92S128,128,128,128Z"/><path class="cls-3" d="M128,220c-46.74,0,0-92,0-92s46.74,92,0,92"/><path class="cls-3" d="M128,128S25,122.48,48.33,82,128,128,128,128Z"/><path class="cls-3" d="M207.67,174C184.3,214.48,128,128,128,128s103.05,5.52,79.67,46"/><path class="cls-3" d="M128,128s-56.3,86.48-79.67,46S128,128,128,128Z"/><path class="cls-3" d="M207.67,82C231.05,122.48,128,128,128,128s56.3-86.48,79.67-46"/></svg>