<svg id="레이어_1" data-name="레이어 1" xmlns="http://www.w3.org/2000/svg" viewBox="0 0 256 256"><defs><style>.cls-1,.cls-2{fill:#ff748c;}.cls-1{stroke:#fff;stroke-miterlimit:10;stroke-width:24px;}</style></defs><path class="cls-1" d="M128,128.17s-54.89-108,0-108S128,128.17,128,128.17Z"/><path class="cls-1" d="M128,236.22c-54.89,0,0-108,0-108s54.9,108.05,0,108.05"/><path class="cls-1" d="M128,128.17s-121-6.48-93.57-54S128,128.17,128,128.17Z"/><path class="cls-1" d="M221.56,182.2c-27.44,47.54-93.57-54-93.57-54s121,6.49,93.57,54"/><path class="cls-1" d="M128,128.17s-66.12,101.57-93.57,54S128,128.17,128,128.17Z"/><path class="cls-1" d="M221.56,74.15c27.45,47.54-93.57,54-93.57,54s66.13-101.56,93.57-54"/><path class="cls-2" d="M128,128S73.1,20,128,20,128,128,128,128Z"/><path class="cls-2" d="M128,236.05c-54.9,0,0-108,0-108s54.9,108.05,0,108.05"/><path class="cls-2" d="M128,128S7,121.52,34.43,74,128,128,128,128Z"/><path class="cls-2" d="M221.57,182C194.13,229.57,128,128,128,128s121,6.48,93.57,54"/><path class="cls-2" d="M128,128S61.87,229.57,34.43,182,128,128,128,128Z"/><path class="cls-2" d="M221.57,74C249,121.52,128,128,128,128s66.13-101.57,93.57-54"/></svg>