<svg id="레이어_1" data-name="레이어 1" xmlns="http://www.w3.org/2000/svg" viewBox="0 0 256 256"><defs><style>.cls-1{fill:#f2f2f2;}.cls-2{fill:#7d7d7d;}.cls-3{fill:#187853;}</style></defs><circle class="cls-1" cx="128" cy="128" r="120"/><path class="cls-2" d="M128,16a112,112,0,0,1,79.2,191.2A112,112,0,0,1,48.8,48.8,111.29,111.29,0,0,1,128,16m0-16A128,128,0,1,0,256,128,128,128,0,0,0,128,0Z"/><path class="cls-3" d="M128.07,225.48l-.43,0a5,5,0,0,1-4.57-5.05c.08-5.74,2.43-141.11,54.91-171.22a5,5,0,1,1,5,8.67c-26.07,15-38.54,62-44.49,101.68,11.4-32.71,24.93-52.31,40.29-58.29,10.74-4.19,21.94-1.79,33.27,7.13a5,5,0,1,1-6.18,7.86c-8.47-6.67-16.14-8.52-23.46-5.67-27.49,10.71-45,83.55-49.37,110.71A5,5,0,0,1,128.07,225.48Z"/><path class="cls-3" d="M128.07,225.48a5,5,0,0,1-4.9-6c1.18-5.69,12.22-55.8,37.41-64.7,9-3.17,18.26-.87,27.66,6.84a5,5,0,1,1-6.34,7.73c-6.6-5.41-12.48-7.09-18-5.15-16.88,6-28.07,43.38-30.95,57.3A5,5,0,0,1,128.07,225.48Z"/><path class="cls-3" d="M127.93,225.48a5,5,0,0,1-4.94-4.2c-4.41-27.16-21.88-100-49.37-110.71-7.31-2.85-15-1-23.46,5.67A5,5,0,0,1,44,108.38c11.33-8.92,22.53-11.32,33.27-7.13,15.36,6,28.89,25.58,40.29,58.29-6-39.68-18.42-86.72-44.49-101.68a5,5,0,1,1,5-8.67c52.48,30.11,54.83,165.48,54.91,171.22a5,5,0,0,1-4.57,5.05Z"/><path class="cls-3" d="M127.93,225.48a5,5,0,0,1-4.9-4c-2.88-13.92-14.07-51.34-30.95-57.3-5.5-1.94-11.38-.26-18,5.15a5,5,0,1,1-6.34-7.73c9.4-7.71,18.7-10,27.66-6.84,25.19,8.9,36.23,59,37.41,64.7a5,5,0,0,1-4.9,6Z"/></svg>