<svg id="레이어_1" data-name="레이어 1" xmlns="http://www.w3.org/2000/svg" viewBox="0 0 266 60"><defs><style>.cls-1{fill:#fff;}.cls-2{fill:gray;}</style></defs><polygon class="cls-1" points="22.57 42.14 22.37 17.85 230.01 8.13 230.23 51.86 22.57 42.14"/><path class="cls-2" d="M227,11.28l.19,37.44L25.55,39.28l-.16-18.56L227,11.28M233,5,19.35,15l.25,30L233.25,55,233,5Z"/><circle class="cls-1" cx="234" cy="30" r="22"/><path class="cls-2" d="M234,11a19,19,0,1,1-19,19,19,19,0,0,1,19-19m0-6a25,25,0,1,0,25,25A25,25,0,0,0,234,5Z"/><circle class="cls-1" cx="20" cy="30" r="12"/><path class="cls-2" d="M20,21a9,9,0,1,1-9,9,9,9,0,0,1,9-9m0-6A15,15,0,1,0,35,30,15,15,0,0,0,20,15Z"/><polyline class="cls-1" points="20 21 41 20 41 40 20 39 20 21"/></svg>