<svg id="레이어_1" data-name="레이어 1" xmlns="http://www.w3.org/2000/svg" viewBox="0 0 256 256"><defs><style>.cls-1{fill:#f2f2f2;}.cls-2{fill:#7d7d7d;}.cls-3{fill:#0c4d1b;}</style></defs><circle class="cls-1" cx="128" cy="128" r="120"/><path class="cls-2" d="M128,16a112,112,0,0,1,79.2,191.2A112,112,0,0,1,48.8,48.8,111.29,111.29,0,0,1,128,16m0-16A128,128,0,1,0,256,128,128,128,0,0,0,128,0Z"/><path class="cls-3" d="M127.89,131.46c-52.22,0-94.55,12.09-94.55,27s42.33,27,94.55,27,94.55-12.08,94.55-27S180.11,131.46,127.89,131.46Zm.24,44.34C94.07,175.8,66.46,167,66.46,156s27.61-19.76,61.67-19.76S189.8,145.13,189.8,156,162.19,175.8,128.13,175.8Z"/><path class="cls-3" d="M128,99C68.47,99,20.21,112.71,20.21,129.63S68.47,160.27,128,160.27s107.79-13.72,107.79-30.64S187.53,99,128,99Zm.27,50.34c-38.83,0-70.31-10-70.31-22.43s31.48-22.44,70.31-22.44,70.31,10.05,70.31,22.44S167.1,149.33,128.27,149.33Z"/><path class="cls-3" d="M128.54,70.56C76.32,70.56,34,82.64,34,97.55s42.33,27,94.55,27,94.55-12.09,94.55-27S180.76,70.56,128.54,70.56Zm.24,44.34c-34.06,0-61.67-8.85-61.67-19.76s27.61-19.76,61.67-19.76,61.67,8.85,61.67,19.76S162.84,114.9,128.78,114.9Z"/></svg>