<svg id="레이어_1" data-name="레이어 1" xmlns="http://www.w3.org/2000/svg" viewBox="0 0 256 256"><defs><style>.cls-1{fill:#f2f2f2;}.cls-2{fill:#7d7d7d;}.cls-3{fill:#ff9810;}</style></defs><circle class="cls-1" cx="128" cy="128" r="120"/><path class="cls-2" d="M128,16a112,112,0,0,1,79.2,191.2A112,112,0,0,1,48.8,48.8,111.29,111.29,0,0,1,128,16m0-16A128,128,0,1,0,256,128,128,128,0,0,0,128,0Z"/><path class="cls-3" d="M102.47,170.7l-5.61,1.87-6.54-7.47-15.88-1.87-.94-7.48,3.74-8.41-9.34-4.67,16.82-9.34L90,123.21a37.38,37.38,0,1,0,27,46.2Z"/><polygon class="cls-3" points="96.36 116.51 95.01 127.08 101.96 136.13 110.9 118.1 96.36 116.51"/><polygon class="cls-3" points="85.96 143.61 99.67 153.88 80.41 159.49 85.96 143.61"/><polygon class="cls-3" points="133.63 163.66 118.38 156.29 109.11 164.78 127.8 165.64 133.63 163.66"/><polygon class="cls-3" points="93.27 92.29 95.13 98.83 100.45 97.91 105.41 90.42 93.27 92.29"/><polygon class="cls-3" points="166.92 138.31 162.57 147.66 172.85 148.59 170.98 142.05 166.92 138.31"/><rect class="cls-3" x="103.63" y="85.75" width="69.57" height="4.32" transform="translate(-17.11 139.84) rotate(-50.89)"/><rect class="cls-3" x="108.53" y="98.45" width="108.04" height="4.32" transform="translate(-27.82 118.02) rotate(-36.98)"/><rect class="cls-3" x="134.84" y="123.89" width="73.37" height="4.32" transform="translate(-34.05 70.84) rotate(-21.28)"/></svg>