<svg id="레이어_1" data-name="레이어 1" xmlns="http://www.w3.org/2000/svg" viewBox="0 0 256 256"><defs><style>.cls-1{fill:#f2f2f2;}.cls-2{fill:#7d7d7d;}.cls-3{fill:#4fc3f7;}</style></defs><circle class="cls-1" cx="128" cy="128" r="120"/><path class="cls-2" d="M128,16a112,112,0,0,1,79.2,191.2A112,112,0,0,1,48.8,48.8,111.29,111.29,0,0,1,128,16m0-16A128,128,0,1,0,256,128,128,128,0,0,0,128,0Z"/><path class="cls-3" d="M55.26,179.44a89.28,89.28,0,0,0,64.56,37.28V142.17Z"/><path class="cls-3" d="M119.82,39.29A89,89,0,0,0,55.27,76.57l64.55,37.26Z"/><path class="cls-3" d="M47.09,90.73a89,89,0,0,0,0,74.54L111.64,128Z"/><path class="cls-3" d="M200.74,76.56a89.28,89.28,0,0,0-64.56-37.28v74.55Z"/><path class="cls-3" d="M208.91,165.27a89,89,0,0,0,0-74.54L144.36,128Z"/><path class="cls-3" d="M136.18,216.71a89,89,0,0,0,64.55-37.28l-64.55-37.26Z"/></svg>