<svg id="레이어_1" data-name="레이어 1" xmlns="http://www.w3.org/2000/svg" viewBox="0 0 256 256"><defs><style>.cls-1{fill:#f2f2f2;}.cls-2{fill:#7d7d7d;}.cls-3{fill:#1c6180;}.cls-4{fill:#4fc3f7;}</style></defs><circle class="cls-1" cx="128" cy="128" r="120"/><path class="cls-2" d="M128,16a112,112,0,0,1,79.2,191.2A112,112,0,0,1,48.8,48.8,111.29,111.29,0,0,1,128,16m0-16A128,128,0,1,0,256,128,128,128,0,0,0,128,0Z"/><path class="cls-3" d="M57.42,179.44A89.28,89.28,0,0,0,122,216.72V142.17Z"/><path class="cls-3" d="M122,39.29A89,89,0,0,0,57.43,76.57L122,113.83Z"/><path class="cls-3" d="M49.25,90.73a89,89,0,0,0,0,74.54L113.79,128Z"/><path class="cls-4" d="M202.9,76.56a89.33,89.33,0,0,0-64.56-37.28v74.55Z"/><path class="cls-3" d="M211.06,165.27a89,89,0,0,0,0-74.54L146.52,128Z"/><path class="cls-3" d="M138.34,216.71a89,89,0,0,0,64.54-37.28l-64.54-37.26Z"/></svg>