<svg id="레이어_1" data-name="레이어 1" xmlns="http://www.w3.org/2000/svg" viewBox="0 0 125 125"><defs><style>.cls-1{fill:#f2f2f2;}.cls-2{fill:#7d7d7d;}.cls-3{fill:#4fc3f7;}.cls-4{fill:#1c6180;}</style></defs><circle class="cls-1" cx="62.5" cy="62.5" r="58.59"/><path class="cls-2" d="M62.5,7.81A54.69,54.69,0,1,1,7.81,62.5,54.76,54.76,0,0,1,62.5,7.81M62.5,0A62.5,62.5,0,1,0,125,62.5,62.5,62.5,0,0,0,62.5,0Z"/><path class="cls-3" d="M27,87.62a43.56,43.56,0,0,0,31.53,18.2V69.42Z"/><path class="cls-4" d="M58.51,19.19A43.41,43.41,0,0,0,27,37.39L58.51,55.58Z"/><path class="cls-3" d="M23,44.3a43.5,43.5,0,0,0,0,36.4L54.51,62.5Z"/><path class="cls-3" d="M98,37.38a43.56,43.56,0,0,0-31.53-18.2v36.4Z"/><path class="cls-3" d="M102,80.7a43.5,43.5,0,0,0,0-36.4L70.49,62.5Z"/><path class="cls-3" d="M66.49,105.81A43.41,43.41,0,0,0,98,87.61L66.49,69.42Z"/></svg>