<svg xmlns="http://www.w3.org/2000/svg" xmlns:xlink="http://www.w3.org/1999/xlink" width="256" height="256" viewBox="0 0 256 256">
  <defs>
    <clipPath id="clip-Web_1920_7">
      <rect width="256" height="256"/>
    </clipPath>
  </defs>
  <g id="Web_1920_7" data-name="Web 1920 – 7" clip-path="url(#clip-Web_1920_7)">
    <path id="Path_8" data-name="Path 8" d="M48.828-41.016c6.934,0,10.742-3.809,12.207-10.352,1.27-8.2,4.2-12.4,17.188-19.922,13.77-8.105,20.9-18.164,20.9-32.91,0-22.754-18.652-37.988-46.387-37.988-21,0-36.621,8.3-42.871,21.191a24.159,24.159,0,0,0-2.93,11.621c0,7.422,4.785,12.207,12.5,12.207,5.957,0,10.352-2.734,12.793-8.984,3.125-8.691,9.57-13.379,19.141-13.379,10.742,0,18.164,6.641,18.164,16.211,0,8.984-3.809,13.867-16.406,21.387C41.6-75.2,35.645-67.578,35.645-56.055v1.367C35.645-46.68,40.527-41.016,48.828-41.016Zm.2,43.457c8.887,0,16.016-6.738,16.016-15.332S57.91-28.223,49.023-28.223c-8.789,0-15.918,6.738-15.918,15.332S40.234,2.441,49.023,2.441Z" transform="translate(74.973 197.873)" stroke="#fff" stroke-width="5"/>
  </g>
</svg>
